<svg viewBox="0 0 860 220" xmlns="http://www.w3.org/2000/svg" font-family="'Fira Code', 'Cascadia Code', Consolas, monospace">
  <rect x="1" y="1" width="858" height="218" rx="12" fill="#000000" stroke="#262626" stroke-width="1"/>

  <g font-size="13" fill="#e5e5e5">
    <rect x="24" y="24" width="256" height="52" rx="8" fill="#0a0a0a" stroke="#262626"/>
    <circle cx="50" cy="50" r="4" fill="#8B5CF6"/>
    <text x="66" y="54">Desarrollo Backend</text>

    <rect x="300" y="24" width="256" height="52" rx="8" fill="#0a0a0a" stroke="#262626"/>
    <circle cx="326" cy="50" r="4" fill="#8B5CF6"/>
    <text x="342" y="54">Cloud y DevOps</text>

    <rect x="576" y="24" width="260" height="52" rx="8" fill="#0a0a0a" stroke="#262626"/>
    <circle cx="602" cy="50" r="4" fill="#8B5CF6"/>
    <text x="618" y="54">Linux e infraestructura</text>

    <rect x="24" y="90" width="256" height="52" rx="8" fill="#0a0a0a" stroke="#262626"/>
    <circle cx="50" cy="116" r="4" fill="#8B5CF6"/>
    <text x="66" y="120">Software científico</text>

    <rect x="300" y="90" width="256" height="52" rx="8" fill="#0a0a0a" stroke="#262626"/>
    <circle cx="326" cy="116" r="4" fill="#8B5CF6"/>
    <text x="342" y="120">Computación de investigación</text>

    <rect x="576" y="90" width="260" height="52" rx="8" fill="#0a0a0a" stroke="#262626"/>
    <circle cx="602" cy="116" r="4" fill="#8B5CF6"/>
    <text x="618" y="120">Telemetría y observabilidad</text>

    <rect x="24" y="156" width="256" height="52" rx="8" fill="#0a0a0a" stroke="#262626"/>
    <circle cx="50" cy="182" r="4" fill="#8B5CF6"/>
    <text x="66" y="186">Deep tech</text>
  </g>
</svg>
